<svg xmlns="http://www.w3.org/2000/svg" xmlns:xlink="http://www.w3.org/1999/xlink" width="471" zoomAndPan="magnify" viewBox="0 0 353.25 109.499999" height="146" preserveAspectRatio="xMidYMid meet" version="1.0"><defs><g/><clipPath id="4e82981f1b"><path d="M 0.429688 0 L 352.074219 0 L 352.074219 109.003906 L 0.429688 109.003906 Z M 0.429688 0 " clip-rule="nonzero"/></clipPath><clipPath id="cae4d47e72"><path d="M 54 8.652344 L 141.511719 8.652344 L 141.511719 88.539062 L 54 88.539062 Z M 54 8.652344 " clip-rule="nonzero"/></clipPath><clipPath id="3b85b01cb9"><path d="M 4.136719 8.652344 L 92 8.652344 L 92 88.539062 L 4.136719 88.539062 Z M 4.136719 8.652344 " clip-rule="nonzero"/></clipPath><clipPath id="fcf84b68e4"><rect x="0" width="224" y="0" height="56"/></clipPath></defs><g clip-path="url(#4e82981f1b)"><path fill="#ffffff" d="M 0.429688 0 L 352.074219 0 L 352.074219 109.003906 L 0.429688 109.003906 Z M 0.429688 0 " fill-opacity="1" fill-rule="nonzero"/><path fill="#ffffff" d="M 0.429688 0 L 352.074219 0 L 352.074219 109.003906 L 0.429688 109.003906 Z M 0.429688 0 " fill-opacity="1" fill-rule="nonzero"/></g><g clip-path="url(#cae4d47e72)"><path fill="#38b6ff" d="M 123.46875 8.832031 L 114.292969 24.734375 L 109.699219 32.683594 L 105.117188 40.628906 L 100.519531 48.578125 L 95.933594 56.53125 L 91.34375 64.480469 L 86.75 72.429688 L 77.570312 72.429688 L 72.976562 64.480469 L 68.390625 56.53125 L 63.800781 48.585938 L 59.210938 56.53125 L 54.625 64.480469 L 59.214844 72.429688 L 63.800781 80.375 L 68.390625 88.328125 L 95.933594 88.328125 L 100.519531 80.382812 L 105.109375 72.429688 L 109.699219 64.480469 L 114.292969 56.53125 L 118.878906 48.578125 L 123.46875 40.628906 L 132.644531 24.734375 L 141.828125 8.832031 Z M 123.46875 8.832031 " fill-opacity="1" fill-rule="nonzero"/></g><g clip-path="url(#3b85b01cb9)"><path fill="#165a87" d="M 59.210938 24.734375 L 68.390625 24.734375 L 72.984375 32.679688 L 77.570312 40.628906 L 82.160156 48.578125 L 86.75 40.628906 L 91.335938 32.679688 L 86.75 24.734375 L 82.160156 16.78125 L 77.570312 8.832031 L 50.039062 8.832031 L 45.441406 16.789062 L 40.855469 24.734375 L 36.265625 32.683594 L 31.679688 40.628906 L 27.089844 48.578125 L 22.496094 56.53125 L 13.316406 72.429688 L 8.722656 80.382812 L 4.136719 88.328125 L 22.496094 88.328125 L 27.082031 80.375 L 31.675781 72.429688 L 40.855469 56.53125 L 45.441406 48.578125 L 50.035156 40.628906 L 54.625 32.683594 Z M 59.210938 24.734375 " fill-opacity="1" fill-rule="nonzero"/></g><g transform="matrix(1, 0, 0, 1, 122, 46)"><g clip-path="url(#fcf84b68e4)"><g fill="#165a87" fill-opacity="1"><g transform="translate(0.683898, 39.91258)"><g><path d="M 23.265625 -36.0625 L 23.265625 -28.859375 L 10.84375 -28.859375 L 10.84375 -21.6875 L 22.734375 -21.6875 L 22.734375 -14.46875 L 10.84375 -14.46875 L 10.84375 -7.21875 L 23.265625 -7.21875 L 23.265625 0 L 2.625 0 L 2.625 -36.0625 Z M 23.265625 -36.0625 "/></g></g></g><g fill="#165a87" fill-opacity="1"><g transform="translate(26.038642, 39.91258)"><g><path d="M 36.375 0 L 25.75 0 L 17.21875 -12.28125 L 8.703125 0 L -1.484375 0 L 12.15625 -19.40625 L 0.78125 -36.0625 L 10.578125 -36.0625 L 17.21875 -26.234375 L 23.875 -36.0625 L 34.09375 -36.0625 L 22.296875 -19.40625 Z M 36.375 0 "/></g></g></g><g fill="#165a87" fill-opacity="1"><g transform="translate(60.923277, 39.91258)"><g><path d="M 20.9375 -36.0625 L 35.5 0 L 26.671875 0 L 24 -7.21875 L 10.28125 -7.21875 L 7.609375 0 L -1.21875 0 L 13.328125 -36.0625 Z M 21.203125 -14.421875 L 17.1875 -24.921875 L 17.09375 -24.921875 L 13.078125 -14.421875 Z M 21.203125 -14.421875 "/></g></g></g><g fill="#165a87" fill-opacity="1"><g transform="translate(95.195908, 39.91258)"><g/></g></g><g fill="#165a87" fill-opacity="1"><g transform="translate(107.130128, 39.91258)"><g><path d="M 2.625 -36.0625 L 15.78125 -36.0625 C 19.457031 -36.0625 22.429688 -35.113281 24.703125 -33.21875 C 26.972656 -31.332031 28.109375 -28.582031 28.109375 -24.96875 C 28.109375 -21.351562 26.957031 -18.515625 24.65625 -16.453125 C 22.351562 -14.398438 19.394531 -13.375 15.78125 -13.375 L 10.84375 -13.375 L 10.84375 0 L 2.625 0 Z M 10.84375 -19.9375 L 13.15625 -19.9375 C 14.988281 -19.9375 16.492188 -20.304688 17.671875 -21.046875 C 18.859375 -21.796875 19.453125 -23.015625 19.453125 -24.703125 C 19.453125 -26.421875 18.859375 -27.648438 17.671875 -28.390625 C 16.492188 -29.140625 14.988281 -29.515625 13.15625 -29.515625 L 10.84375 -29.515625 Z M 10.84375 -19.9375 "/></g></g></g><g fill="#165a87" fill-opacity="1"><g transform="translate(136.244377, 39.91258)"><g><path d="M 10.84375 -36.0625 L 10.84375 -7.21875 L 23.265625 -7.21875 L 23.265625 0 L 2.625 0 L 2.625 -36.0625 Z M 10.84375 -36.0625 "/></g></g></g><g fill="#165a87" fill-opacity="1"><g transform="translate(160.943403, 39.91258)"><g><path d="M 30.34375 -36.0625 L 30.34375 -12.8125 C 30.34375 -8.382812 29.144531 -5.03125 26.75 -2.75 C 24.363281 -0.476562 20.867188 0.65625 16.265625 0.65625 C 11.660156 0.65625 8.160156 -0.476562 5.765625 -2.75 C 3.378906 -5.03125 2.1875 -8.382812 2.1875 -12.8125 L 2.1875 -36.0625 L 10.40625 -36.0625 L 10.40625 -15.21875 C 10.40625 -12.300781 10.863281 -10.273438 11.78125 -9.140625 C 12.695312 -8.003906 14.191406 -7.4375 16.265625 -7.4375 C 18.335938 -7.4375 19.832031 -8.003906 20.75 -9.140625 C 21.664062 -10.273438 22.125 -12.300781 22.125 -15.21875 L 22.125 -36.0625 Z M 30.34375 -36.0625 "/></g></g></g><g fill="#165a87" fill-opacity="1"><g transform="translate(193.467422, 39.91258)"><g><path d="M 15.90625 -36.71875 C 17.863281 -36.71875 19.773438 -36.429688 21.640625 -35.859375 C 23.503906 -35.296875 24.890625 -34.738281 25.796875 -34.1875 L 27.109375 -33.3125 L 23.78125 -26.75 C 23.519531 -26.925781 23.15625 -27.148438 22.6875 -27.421875 C 22.21875 -27.703125 21.34375 -28.078125 20.0625 -28.546875 C 18.78125 -29.015625 17.585938 -29.25 16.484375 -29.25 C 15.109375 -29.25 14.050781 -28.957031 13.3125 -28.375 C 12.570312 -27.789062 12.203125 -27.003906 12.203125 -26.015625 C 12.203125 -25.515625 12.375 -25.050781 12.71875 -24.625 C 13.070312 -24.207031 13.671875 -23.757812 14.515625 -23.28125 C 15.359375 -22.800781 16.097656 -22.414062 16.734375 -22.125 C 17.378906 -21.832031 18.375 -21.394531 19.71875 -20.8125 C 22.050781 -19.820312 24.039062 -18.472656 25.6875 -16.765625 C 27.332031 -15.054688 28.15625 -13.125 28.15625 -10.96875 C 28.15625 -8.90625 27.78125 -7.097656 27.03125 -5.546875 C 26.289062 -4.003906 25.269531 -2.796875 23.96875 -1.921875 C 22.675781 -1.046875 21.242188 -0.398438 19.671875 0.015625 C 18.097656 0.441406 16.394531 0.65625 14.5625 0.65625 C 12.988281 0.65625 11.441406 0.492188 9.921875 0.171875 C 8.410156 -0.148438 7.144531 -0.550781 6.125 -1.03125 C 5.101562 -1.507812 4.179688 -1.976562 3.359375 -2.4375 C 2.546875 -2.90625 1.953125 -3.300781 1.578125 -3.625 L 1 -4.109375 L 5.109375 -11.015625 C 5.460938 -10.722656 5.941406 -10.347656 6.546875 -9.890625 C 7.160156 -9.441406 8.25 -8.835938 9.8125 -8.078125 C 11.375 -7.328125 12.753906 -6.953125 13.953125 -6.953125 C 17.421875 -6.953125 19.15625 -8.132812 19.15625 -10.5 C 19.15625 -10.988281 19.03125 -11.441406 18.78125 -11.859375 C 18.53125 -12.285156 18.09375 -12.707031 17.46875 -13.125 C 16.84375 -13.550781 16.285156 -13.890625 15.796875 -14.140625 C 15.316406 -14.390625 14.53125 -14.769531 13.4375 -15.28125 C 12.34375 -15.789062 11.535156 -16.175781 11.015625 -16.4375 C 8.828125 -17.519531 7.132812 -18.867188 5.9375 -20.484375 C 4.75 -22.097656 4.15625 -23.835938 4.15625 -25.703125 C 4.15625 -28.941406 5.347656 -31.585938 7.734375 -33.640625 C 10.128906 -35.691406 12.851562 -36.71875 15.90625 -36.71875 Z M 15.90625 -36.71875 "/></g></g></g></g></g></svg>